<?xml version="1.0" encoding="UTF-8" standalone="no"?>
<svg
   xmlns:dc="http://purl.org/dc/elements/1.1/"
   xmlns:cc="http://creativecommons.org/ns#"
   xmlns:rdf="http://www.w3.org/1999/02/22-rdf-syntax-ns#"
   xmlns:svg="http://www.w3.org/2000/svg"
   xmlns="http://www.w3.org/2000/svg"
   viewBox="0 0 170.66667 170.66667"
   height="170.66667"
   width="170.66667"
   xml:space="preserve"
   id="svg2"
   version="1.1"><metadata
     id="metadata8"><rdf:RDF><cc:Work
         rdf:about=""><dc:format>image/svg+xml</dc:format><dc:type
           rdf:resource="http://purl.org/dc/dcmitype/StillImage" /></cc:Work></rdf:RDF></metadata><defs
     id="defs6"><clipPath
       id="clipPath18"
       clipPathUnits="userSpaceOnUse"><path
         id="path16"
         d="M 0,128 H 128 V 0 H 0 Z" /></clipPath><clipPath
       id="clipPath42"
       clipPathUnits="userSpaceOnUse"><path
         id="path40"
         d="M 0,128 H 128 V 0 H 0 Z" /></clipPath></defs><g
     transform="matrix(1.3333333,0,0,-1.3333333,0,170.66667)"
     id="g10"><g
       id="g12"><g
         clip-path="url(#clipPath18)"
         id="g14"><g
           transform="translate(3,2)"
           id="g20"><path
             id="path22"
             style="fill:#ffffff;fill-opacity:1;fill-rule:nonzero;stroke:none"
             d="M 0,0 V 72.978 C 0,100.009 21.991,122 49.022,122 H 122 V 49.022 C 122,21.991 100.009,0 72.978,0 Z" /></g><g
           transform="translate(126,125)"
           id="g24"><path
             id="path26"
             style="fill:#000000;fill-opacity:1;fill-rule:nonzero;stroke:none"
             d="M 0,0 H -73.978 C -101.604,0 -124,-22.396 -124,-50.022 V -124 h 73.978 C -22.396,-124 0,-101.604 0,-73.978 Z M -2,-2 V -73.978 C -2,-100.457 -23.543,-122 -50.022,-122 H -122 v 71.978 C -122,-23.542 -100.458,-2 -73.978,-2 H -2" /></g><text
           id="text30"
           style="font-variant:normal;font-weight:normal;font-stretch:normal;font-size:72px;font-family:Sylfaen;-inkscape-font-specification:Sylfaen;writing-mode:lr-tb;fill:#000000;fill-opacity:1;fill-rule:nonzero;stroke:none"
           transform="matrix(1,0,0,-1,17.3945,58.7305)"><tspan
             id="tspan28"
             y="0"
             x="0">D</tspan></text>
</g></g><text
       id="text34"
       style="font-variant:normal;font-weight:normal;font-stretch:normal;font-size:72.00004578px;font-family:Sylfaen;-inkscape-font-specification:Sylfaen;writing-mode:lr-tb;fill:#000000;fill-opacity:1;fill-rule:nonzero;stroke:none"
       transform="matrix(0.99648552,-0.08376523,-0.08376523,-0.99648552,56.7999,40.7086)"><tspan
         id="tspan32"
         y="0"
         x="0">/</tspan></text>
<g
       id="g36"><g
         clip-path="url(#clipPath42)"
         id="g38"><text
           id="text46"
           style="font-variant:normal;font-weight:normal;font-stretch:normal;font-size:72px;font-family:Sylfaen;-inkscape-font-specification:Sylfaen;writing-mode:lr-tb;fill:#000000;fill-opacity:1;fill-rule:nonzero;stroke:none"
           transform="matrix(1,0,0,-1,75.3945,20.7305)"><tspan
             id="tspan44"
             y="0"
             x="0">S</tspan></text>
<g
           transform="translate(94,107)"
           id="g48"><path
             id="path50"
             style="fill:none;stroke:#000000;stroke-width:2;stroke-linecap:butt;stroke-linejoin:miter;stroke-miterlimit:10;stroke-dasharray:none;stroke-opacity:1"
             d="M 0,0 H 15" /></g><g
           transform="translate(20,19.5)"
           id="g52"><path
             id="path54"
             style="fill:none;stroke:#000000;stroke-width:2;stroke-linecap:butt;stroke-linejoin:miter;stroke-miterlimit:10;stroke-dasharray:none;stroke-opacity:1"
             d="M 0,0 H 15" /></g><g
           transform="translate(21,34)"
           id="g56"><path
             id="path58"
             style="fill:none;stroke:#000000;stroke-width:2;stroke-linecap:butt;stroke-linejoin:miter;stroke-miterlimit:10;stroke-dasharray:none;stroke-opacity:1"
             d="M 0,0 V -15" /></g><g
           transform="translate(108,108)"
           id="g60"><path
             id="path62"
             style="fill:none;stroke:#000000;stroke-width:2;stroke-linecap:butt;stroke-linejoin:miter;stroke-miterlimit:10;stroke-dasharray:none;stroke-opacity:1"
             d="M 0,0 V -15" /></g></g></g></g></svg>